<?xml version="1.0" standalone="no"?>
<!DOCTYPE svg PUBLIC "-//W3C//DTD SVG 20010904//EN"
 "http://www.w3.org/TR/2001/REC-SVG-20010904/DTD/svg10.dtd">
<svg version="1.0" xmlns="http://www.w3.org/2000/svg"
 width="851.000000pt" height="851.000000pt" viewBox="0 0 851.000000 851.000000"
 preserveAspectRatio="xMidYMid meet">
<metadata>
Created by potrace 1.14, written by Peter Selinger 2001-2017
</metadata>
<g transform="translate(0.000000,851.000000) scale(0.100000,-0.100000)"
fill="#000000" stroke="none">
<path d="M3996 8070 c-46 -25 -70 -65 -72 -118 -3 -74 39 -132 106 -147 17 -4
30 -12 31 -18 0 -7 2 -25 4 -42 2 -16 7 -66 9 -110 3 -44 9 -114 12 -155 4
-41 8 -99 8 -127 1 -29 3 -53 6 -53 3 0 5 -13 6 -30 1 -16 -2 -28 -6 -25 -3 2
-19 -3 -34 -11 -16 -7 -34 -14 -41 -14 -12 0 -30 -27 -27 -42 2 -7 -55 -25
-108 -35 -13 -2 -29 -8 -35 -12 -5 -5 -26 -12 -45 -16 -58 -13 -236 -106 -302
-159 -14 -11 -37 -29 -50 -39 -115 -87 -320 -351 -310 -399 1 -5 -2 -8 -6 -8
-4 0 -19 -29 -33 -65 -13 -36 -28 -65 -32 -65 -5 0 -6 -4 -3 -9 5 -8 -2 -39
-21 -91 -3 -8 -7 -26 -9 -40 -2 -14 -7 -53 -12 -88 -5 -34 -8 -76 -8 -92 1
-17 -1 -30 -4 -30 -3 0 -4 -17 -2 -39 4 -35 2 -39 -25 -44 -87 -17 -130 -141
-78 -221 10 -15 35 -36 57 -47 39 -20 68 -21 238 -5 69 7 190 17 255 21 56 4
187 14 255 20 25 3 74 7 110 9 36 3 93 8 128 11 59 5 62 4 63 -17 0 -13 2 -34
4 -48 7 -55 9 -110 4 -114 -3 -3 -41 -8 -84 -11 -44 -3 -101 -8 -127 -11 -27
-2 -69 -6 -95 -8 -27 -3 -84 -8 -128 -11 -44 -3 -102 -8 -130 -11 -27 -2 -77
-6 -110 -9 -33 -2 -94 -7 -135 -10 -41 -4 -92 -8 -113 -9 -21 -2 -47 -10 -57
-19 -18 -15 -19 -25 -8 -57 9 -24 51 -214 51 -227 0 -7 3 -13 7 -13 4 0 7 -6
7 -12 1 -21 12 -73 34 -160 11 -46 27 -110 35 -143 8 -33 16 -67 18 -75 9 -33
27 -106 32 -130 3 -14 14 -61 26 -105 11 -44 21 -89 23 -100 2 -11 12 -56 24
-100 79 -314 86 -349 63 -350 -52 -4 -89 -22 -129 -62 l-46 -45 -86 -4 c-47
-2 -129 -6 -181 -9 -52 -2 -144 -7 -205 -10 -60 -2 -159 -8 -220 -11 -60 -3
-141 -8 -180 -9 -38 -2 -70 -4 -70 -4 0 -1 -47 -3 -105 -6 -58 -3 -145 -7
-195 -10 -115 -6 -277 -15 -380 -20 -111 -6 -275 -15 -370 -21 -44 -2 -127 -7
-185 -9 -58 -3 -105 -5 -105 -6 0 0 -21 -2 -47 -3 -32 -2 -48 1 -48 9 0 6 -7
12 -15 12 -8 0 -15 -5 -15 -10 0 -5 -6 -4 -13 2 -8 6 -17 8 -20 4 -6 -6 -39
-9 -169 -16 -26 -2 -50 -6 -54 -10 -4 -4 -13 -2 -21 4 -7 6 -13 8 -13 3 0 -5
-12 -10 -28 -10 -115 -5 -149 -8 -163 -15 -9 -5 -21 -3 -27 3 -7 7 -12 8 -12
2 0 -5 -15 -10 -33 -10 -87 -2 -169 -9 -173 -16 -3 -5 -13 -4 -23 2 -10 5 -21
6 -25 3 -3 -3 -6 -41 -6 -83 l0 -77 32 3 c18 3 68 5 110 7 43 1 78 4 78 7 0 3
25 5 56 5 31 0 57 2 59 5 2 4 21 5 42 4 21 -1 46 3 55 7 10 6 19 5 23 -1 4 -7
12 -7 18 -2 7 4 40 8 74 8 35 -1 63 2 63 6 0 4 16 5 35 4 19 -2 37 0 40 4 7
11 45 0 42 -13 -2 -11 16 -11 138 -3 94 6 284 17 370 21 39 2 120 6 180 10 61
3 153 7 205 10 52 2 138 7 190 10 52 3 138 8 190 11 52 2 138 7 190 10 52 3
129 7 170 9 41 2 122 6 180 9 58 3 159 8 225 11 228 10 320 15 371 20 50 4 52
3 84 -36 17 -22 43 -44 55 -49 23 -9 24 -13 23 -108 0 -71 -5 -114 -19 -153
-11 -30 -21 -58 -22 -64 -2 -5 -11 -24 -20 -41 l-16 -32 39 -26 c22 -14 44
-26 50 -26 6 0 8 -4 5 -10 -3 -5 -2 -10 4 -10 5 0 16 -2 23 -5 21 -8 89 142
115 255 2 8 4 57 6 107 1 51 3 93 5 93 4 0 22 -50 27 -78 7 -39 11 -57 39
-167 14 -55 27 -111 30 -125 8 -34 31 -130 51 -210 9 -35 18 -74 20 -85 2 -11
4 -21 6 -22 1 -2 2 -6 3 -10 9 -36 17 -71 20 -88 3 -11 30 -123 61 -250 31
-126 67 -277 81 -335 13 -58 29 -121 34 -140 5 -19 19 -75 32 -125 12 -49 27
-96 34 -103 13 -12 30 -12 229 3 39 3 76 8 83 10 6 2 12 -1 13 -8 0 -7 2 -21
4 -32 10 -50 16 -225 9 -226 -47 -4 -72 -6 -304 -24 -30 -3 -80 -7 -110 -10
-30 -3 -86 -8 -125 -10 -38 -3 -92 -7 -120 -10 -27 -2 -84 -7 -125 -10 -195
-13 -271 -39 -348 -117 -71 -72 -106 -158 -105 -263 0 -111 28 -188 94 -260
27 -30 37 -46 28 -48 -12 -3 -170 -43 -204 -52 -10 -2 -17 -4 -78 -27 -34 -13
-77 -46 -77 -59 0 -23 67 -40 225 -55 148 -15 676 -4 1040 22 50 3 119 8 155
10 79 4 167 11 350 28 30 3 84 8 120 11 36 3 81 8 100 10 19 2 73 6 120 10 47
4 94 9 105 11 11 3 38 6 60 9 22 2 83 9 135 15 52 6 111 13 130 15 19 2 49 6
65 8 17 3 55 8 86 12 31 3 65 7 76 9 20 4 125 19 156 22 9 1 18 2 20 3 1 1 18
4 37 6 19 3 64 10 100 16 36 6 76 12 90 14 14 2 54 9 90 15 36 6 79 13 95 16
56 9 227 45 314 65 47 11 95 22 105 25 59 12 181 59 204 79 21 18 24 25 14 37
-17 21 -103 38 -228 44 -60 3 -134 7 -164 8 -67 4 -65 3 -53 19 50 63 49 238
-2 343 -26 53 -94 134 -113 134 -7 0 -12 4 -12 8 0 9 -65 42 -90 45 -8 2 -19
5 -25 9 -11 7 -196 3 -265 -6 -25 -3 -81 -8 -125 -11 -44 -4 -102 -8 -130 -11
-27 -2 -84 -6 -125 -9 -41 -3 -93 -7 -114 -10 -21 -2 -80 -7 -130 -11 -50 -3
-106 -7 -123 -9 -29 -2 -33 1 -34 24 0 14 -2 40 -4 56 -3 17 -7 65 -10 107 -4
68 -3 77 13 76 19 0 144 11 182 16 41 6 59 17 66 39 8 24 8 20 18 187 3 63 9
144 12 179 3 35 7 98 9 140 2 42 7 110 10 151 2 41 7 111 9 155 3 44 6 80 6
80 1 0 3 36 6 80 2 44 6 109 9 145 12 173 18 262 30 465 4 66 9 122 12 125 3
3 25 5 49 5 24 0 44 -2 44 -5 0 -3 17 -6 38 -8 37 -2 93 -9 102 -12 3 -1 12
-2 20 -1 8 0 24 -18 35 -41 25 -50 59 -77 105 -83 180 -25 182 -25 186 0 2 11
5 34 9 52 6 35 3 38 -75 47 -122 16 -140 29 -140 106 0 57 26 96 70 102 17 3
32 2 35 0 2 -3 36 -7 75 -9 68 -4 70 -4 68 19 -1 13 2 38 6 56 6 27 5 32 -11
33 -10 0 -34 2 -53 5 -19 3 -50 6 -67 7 -18 2 -35 6 -38 9 -3 3 -25 2 -48 -3
-30 -7 -53 -21 -79 -50 -41 -45 -37 -45 -183 -24 -48 7 -93 12 -118 14 -17 1
-18 9 -12 99 3 53 8 133 11 177 2 44 7 109 9 145 10 122 10 130 0 130 -7 0 -7
3 0 8 6 4 11 18 12 32 0 14 3 63 7 110 3 47 8 126 11 175 3 50 8 124 11 165 3
41 7 100 9 130 8 132 16 250 21 320 10 146 12 218 4 231 -9 14 -55 16 -175 5
-44 -4 -107 -9 -140 -11 -33 -3 -89 -7 -125 -11 -36 -3 -87 -7 -115 -9 -90 -7
-189 -14 -275 -21 -47 -4 -110 -8 -140 -8 -48 -1 -55 1 -56 19 -1 11 -4 53 -8
92 -5 70 -4 73 17 72 35 -1 139 9 144 15 3 3 14 1 24 -5 11 -5 19 -6 19 -1 0
4 10 8 23 9 31 0 194 12 242 18 22 2 76 6 120 10 44 3 100 7 125 9 25 3 81 7
125 11 250 19 252 20 294 81 41 59 29 148 -27 196 -31 27 -130 43 -144 23 -5
-6 -8 -6 -8 2 0 7 -7 10 -15 7 -16 -7 -22 4 -28 51 -2 17 -7 37 -10 45 -3 8
-8 29 -11 45 -8 54 -89 261 -107 275 -3 3 -9 15 -13 28 -4 12 -12 22 -17 22
-5 0 -9 5 -9 10 0 18 -79 120 -150 195 -124 131 -296 239 -475 300 -93 31
-107 35 -157 39 -20 2 -41 6 -45 9 -5 3 -37 7 -70 9 -39 2 -59 7 -56 14 6 15
-36 41 -81 49 -20 4 -38 10 -40 14 -4 5 -9 61 -22 221 -2 30 -6 78 -8 105 -18
206 -17 215 1 222 29 11 71 53 83 83 15 36 8 101 -14 135 -40 61 -125 81 -190
45z m-586 -4200 c0 -14 -5 -18 -17 -13 -33 12 -37 16 -17 24 30 12 34 10 34
-11z"/>
</g>
</svg>
